<?xml version="1.0" encoding="utf-8"?>
<!-- Generator: Adobe Illustrator 28.3.0, SVG Export Plug-In . SVG Version: 6.00 Build 0)  -->
<svg version="1.1" id="Layer_1" xmlns="http://www.w3.org/2000/svg" xmlns:xlink="http://www.w3.org/1999/xlink" x="0px" y="0px"
	 viewBox="0 0 216 87.54" style="enable-background:new 0 0 216 87.54;" xml:space="preserve">
<style type="text/css">
	.st0{fill:none;stroke:#3B8377;stroke-width:2.7619;stroke-miterlimit:10;}
	.st1{fill:none;stroke:#3B8377;stroke-width:2;stroke-miterlimit:10;}
	.st2{fill:none;stroke:#5FA9A0;stroke-width:2;stroke-miterlimit:10;}
	.st3{fill:none;stroke:#3B8377;stroke-width:1.0827;stroke-miterlimit:10;}
	.st4{fill:none;stroke:#3B8377;stroke-width:0.784;stroke-miterlimit:10;}
	.st5{fill:none;stroke:#5FA9A0;stroke-width:0.784;stroke-miterlimit:10;}
</style>
<g>
	<g>
		<path d="M36.63,52.72l16.85-23.96h0.77l0.6,23.96h3.62l-0.13,0.47H48.01l0.13-0.47h3.66l-0.2-9.4h-7.72l-6.58,9.4h3.39l-0.13,0.47
			h-6.91l0.13-0.47H36.63z M51.4,32.64l-7.18,10.2h7.38l-0.13-10.2H51.4z"/>
		<path d="M66.1,42.28l0.07,0.03c0.27-0.42,0.6-0.87,0.99-1.34c0.39-0.47,0.82-0.89,1.29-1.28c0.47-0.38,0.98-0.7,1.53-0.96
			c0.55-0.26,1.12-0.39,1.73-0.39c0.69,0,1.3,0.13,1.83,0.39c0.53,0.26,0.97,0.59,1.33,1.01c0.36,0.41,0.63,0.89,0.81,1.43
			c0.18,0.54,0.27,1.1,0.27,1.68c0,0.9-0.17,1.78-0.5,2.67c-0.34,0.88-0.78,1.72-1.34,2.52c-0.56,0.79-1.2,1.53-1.91,2.22
			c-0.72,0.68-1.47,1.27-2.25,1.76c-0.78,0.49-1.56,0.88-2.33,1.16c-0.77,0.28-1.49,0.42-2.16,0.42c-0.43,0-0.87-0.07-1.33-0.22
			c-0.46-0.15-0.88-0.37-1.26-0.69c-0.38-0.31-0.69-0.72-0.94-1.21c-0.25-0.49-0.37-1.1-0.37-1.81c0-0.45,0.07-0.97,0.22-1.56
			c0.15-0.59,0.31-1.11,0.49-1.56l6.54-18.39h-2.95l0.13-0.47h5.37L66.1,42.28z M65.49,53.15c0.67,0,1.35-0.2,2.03-0.6
			c0.68-0.4,1.33-0.94,1.95-1.61c0.62-0.67,1.19-1.43,1.73-2.28c0.54-0.85,1-1.73,1.39-2.63c0.39-0.91,0.7-1.8,0.92-2.69
			c0.22-0.88,0.34-1.68,0.34-2.4c0-0.69-0.2-1.22-0.6-1.58c-0.4-0.36-0.95-0.54-1.64-0.54c-0.63,0-1.26,0.2-1.91,0.59
			c-0.65,0.39-1.28,0.91-1.88,1.54s-1.17,1.38-1.71,2.22c-0.54,0.84-1,1.71-1.39,2.6c-0.39,0.9-0.7,1.78-0.94,2.67
			c-0.23,0.88-0.35,1.71-0.35,2.47C63.41,52.4,64.11,53.15,65.49,53.15z"/>
		<path d="M79.05,44.14c0.56-1.17,1.27-2.19,2.13-3.04c0.86-0.85,1.82-1.52,2.87-2.01c1.05-0.49,2.06-0.74,3.02-0.74
			c0.87,0,1.63,0.18,2.28,0.54c0.65,0.36,1.19,0.82,1.61,1.38c0.42,0.56,0.74,1.17,0.94,1.85c0.2,0.67,0.3,1.32,0.3,1.95
			c0,1.3-0.28,2.52-0.84,3.68c-0.56,1.15-1.26,2.16-2.11,3.04c-0.85,0.87-1.8,1.56-2.84,2.06c-1.04,0.5-2.03,0.76-2.97,0.76
			c-0.81,0-1.53-0.16-2.16-0.47c-0.64-0.31-1.19-0.73-1.64-1.24c-0.46-0.51-0.81-1.11-1.06-1.8c-0.25-0.68-0.37-1.4-0.37-2.16
			C78.22,46.57,78.49,45.31,79.05,44.14z M81.25,52.33c0.55,0.55,1.25,0.82,2.1,0.82c0.69,0,1.34-0.2,1.95-0.6
			c0.6-0.4,1.15-0.93,1.64-1.59c0.49-0.66,0.93-1.39,1.31-2.2c0.38-0.81,0.7-1.61,0.96-2.42c0.26-0.81,0.45-1.57,0.59-2.28
			c0.13-0.72,0.2-1.3,0.2-1.75c0-1.07-0.23-1.92-0.69-2.55c-0.46-0.63-1.26-0.94-2.4-0.94c-0.65,0-1.26,0.19-1.85,0.57
			c-0.58,0.38-1.11,0.88-1.59,1.49c-0.48,0.62-0.91,1.31-1.29,2.1c-0.38,0.78-0.7,1.58-0.96,2.4c-0.26,0.82-0.45,1.61-0.59,2.38
			c-0.13,0.77-0.2,1.45-0.2,2.03C80.43,50.94,80.7,51.78,81.25,52.33z"/>
		<path d="M101.31,38.79l-3.86,11.08c-0.18,0.47-0.31,0.89-0.4,1.26c-0.09,0.37-0.13,0.64-0.13,0.82c0,0.31,0.08,0.59,0.25,0.84
			c0.17,0.25,0.45,0.37,0.86,0.37c0.6,0,1.26-0.23,1.96-0.69c0.7-0.46,1.39-1.05,2.06-1.76c0.67-0.72,1.29-1.52,1.85-2.4
			c0.56-0.88,1-1.76,1.31-2.63l2.38-6.88h2.35l-3.96,11.38c-0.11,0.34-0.22,0.68-0.34,1.02c-0.11,0.35-0.17,0.68-0.17,0.99
			c0,0.27,0.08,0.5,0.23,0.69c0.16,0.19,0.39,0.29,0.7,0.29c0.38,0,0.74-0.12,1.09-0.37c0.35-0.25,0.66-0.53,0.94-0.86
			c0.28-0.32,0.52-0.65,0.72-0.99c0.2-0.34,0.35-0.6,0.44-0.81l0.4,0.17c-0.09,0.18-0.23,0.45-0.42,0.82
			c-0.19,0.37-0.45,0.74-0.79,1.11c-0.34,0.37-0.75,0.69-1.24,0.96c-0.49,0.27-1.07,0.4-1.75,0.4c-0.74,0-1.33-0.15-1.76-0.45
			c-0.44-0.3-0.65-0.81-0.65-1.53c0-0.38,0.04-0.74,0.13-1.09c0.09-0.35,0.22-0.74,0.4-1.19l-0.07-0.07
			c-0.31,0.4-0.69,0.86-1.12,1.36c-0.44,0.5-0.91,0.97-1.41,1.41c-0.5,0.44-1.04,0.81-1.61,1.11c-0.57,0.3-1.16,0.45-1.76,0.45
			c-0.96,0-1.72-0.22-2.28-0.67c-0.56-0.45-0.84-1.1-0.84-1.95c0-0.34,0.08-0.73,0.24-1.19c0.16-0.46,0.29-0.87,0.4-1.23l3.29-9.3
			h-2.99l0.13-0.47H101.31z"/>
		<path d="M120,35.5l-1.21,3.29h3.66l-0.13,0.47h-3.66l-3.83,10.67c-0.11,0.34-0.22,0.68-0.34,1.04c-0.11,0.36-0.17,0.72-0.17,1.07
			c0,0.34,0.08,0.6,0.25,0.81c0.17,0.2,0.44,0.3,0.82,0.3c0.4,0,0.78-0.12,1.14-0.37c0.36-0.25,0.68-0.53,0.97-0.86
			c0.29-0.32,0.54-0.65,0.74-0.99c0.2-0.34,0.35-0.6,0.44-0.81l0.4,0.17c-0.09,0.18-0.23,0.45-0.44,0.82
			c-0.2,0.37-0.47,0.74-0.81,1.11c-0.34,0.37-0.76,0.69-1.26,0.96c-0.5,0.27-1.1,0.4-1.8,0.4c-0.85,0-1.49-0.21-1.91-0.62
			c-0.43-0.41-0.64-0.91-0.64-1.49c0-0.45,0.08-0.96,0.25-1.53c0.17-0.57,0.34-1.09,0.52-1.56l3.29-9.13h-3.02l0.13-0.47h3.02
			l1.21-3.29H120z"/>
		<path d="M146.45,52.72l8.26-22.96h-0.07l-16.18,23.43l0.47-23.43h-0.1l-8.16,22.96h3.83l-0.13,0.47h-7.79l0.13-0.47h3.46
			l8.22-22.96h-3.86l0.13-0.47h7.18l-0.4,18.63h0.07l12.86-18.63h6.95l-0.13,0.47h-3.46l-8.22,22.96h3.83l-0.13,0.47h-10.37
			l0.13-0.47H146.45z"/>
		<path d="M168.97,50.75c-0.27,0.41-0.64,0.83-1.11,1.24c-0.47,0.41-1.05,0.78-1.73,1.11c-0.68,0.32-1.51,0.49-2.47,0.49
			c-0.96,0-1.77-0.16-2.43-0.47c-0.66-0.31-1.2-0.72-1.61-1.21c-0.41-0.49-0.72-1.03-0.91-1.63c-0.19-0.59-0.29-1.17-0.29-1.73
			c0-1.12,0.27-2.28,0.82-3.47c0.55-1.2,1.26-2.29,2.15-3.29c0.88-1,1.88-1.82,3-2.47c1.12-0.65,2.26-0.97,3.42-0.97
			c0.45,0,0.89,0.05,1.34,0.15c0.45,0.1,0.85,0.25,1.21,0.45c0.36,0.2,0.65,0.46,0.87,0.77c0.22,0.31,0.34,0.69,0.34,1.14
			c0,0.6-0.16,1.14-0.49,1.59c-0.32,0.46-0.74,0.85-1.26,1.17c-0.52,0.32-1.08,0.6-1.7,0.82c-0.62,0.22-1.21,0.4-1.8,0.52
			c-0.58,0.12-1.11,0.21-1.59,0.27c-0.48,0.06-0.83,0.08-1.06,0.08c-0.38,0-0.75-0.01-1.11-0.03c-0.36-0.02-0.67-0.06-0.94-0.1
			c-0.25,0.72-0.45,1.43-0.62,2.13c-0.17,0.7-0.25,1.45-0.25,2.23c0,1.21,0.31,2.11,0.94,2.7c0.63,0.59,1.42,0.89,2.38,0.89
			c0.72,0,1.35-0.14,1.9-0.42c0.55-0.28,1.03-0.61,1.44-0.99c0.41-0.38,0.76-0.77,1.04-1.16c0.28-0.39,0.51-0.7,0.69-0.92l0.4,0.24
			C169.44,50.05,169.24,50.34,168.97,50.75z M169.11,39.29c-0.27-0.31-0.72-0.47-1.34-0.47c-0.69,0-1.36,0.2-2,0.6
			c-0.64,0.4-1.21,0.9-1.73,1.49c-0.51,0.59-0.96,1.23-1.34,1.91c-0.38,0.68-0.67,1.31-0.87,1.9c0.51,0.09,1.08,0.13,1.71,0.13
			c0.81,0,1.57-0.12,2.28-0.37c0.72-0.25,1.35-0.57,1.9-0.97c0.55-0.4,0.98-0.87,1.31-1.41c0.32-0.54,0.49-1.1,0.49-1.68
			C169.51,39.98,169.37,39.6,169.11,39.29z"/>
	</g>
	<path class="st3" d="M30.6,67.63c0.18-1.03,2.17-0.55,1.86,0.45c0.46,2.39-2.26,4.61-4.63,4.06s-3.87-3.2-3.6-5.62
		c0.27-2.42,1.99-4.5,4.08-5.74c2.09-1.24,4.53-1.77,6.93-2.13c12.76-1.91,25.72,0.33,38.49,2.14c27.54,3.89,55.37,5.79,83.18,5.66
		c9.54-0.04,19.1-0.33,28.53-1.71c3.89-0.57,7.93-1.41,11.02-3.84s4.89-6.94,3.11-10.44c-1.61-3.17-5.58-4.51-9.13-4.22
		c-2.58,0.21-5.29,1.27-6.61,3.5c-1.32,2.23-0.55,5.7,1.92,6.5s5.21-2.65,3.45-4.56"/>
	<path class="st4" d="M189.7,19.01c4.36-1.95,9.48-2.14,13.96-0.5"/>
	<path class="st5" d="M188.5,15.08c3.99-4.7,10.2-7.42,16.35-7.17"/>
	<path class="st4" d="M182.6,15.37c0.57-3.33,2.84-6.33,5.9-7.77"/>
	<path class="st4" d="M38.75,23.23c-3.8-4.14-14.27-8.04-24.75-3.32"/>
	<path class="st5" d="M23.7,49.83c2.86-2.58,0.98-5.18-0.23-6.01c-1.01-0.69-3.04-1.29-4.49-1.32c-1.44-0.03-3.35,2.8-2.58,3.77
		c0.65,0.82,2.38,0.58,3.13-0.25c0.75-0.83,0.71-1.96,0.36-2.9c-0.67-1.8-2.44-3.15-4.56-3.91c-2.74-0.98-7.86,0.26-8.21,5.22"/>
	<path class="st5" d="M43.05,23.36c-0.79-4.73-4.71-8.78-9.42-9.71"/>
	<path class="st4" d="M175.55,48.64c0,0,1.17-26.33,3.23-26.95c2.06-0.62-1.94,27.47-4.31,29.1"/>
	<path class="st4" d="M173.95,53.89c0.11,0.15,0.52-0.06,0.39-0.3c-0.13-0.24-0.24-0.43-0.51-0.36c-0.26,0.07-0.63,0.14-0.73,0.39
		c-0.22,0.58,0.17,1.31,0.77,1.45s1.85-0.28,1.85-1.46c0-1.13-1.03-1.52-1.65-1.48"/>
	<path class="st5" d="M36.97,27.51c-2.89-2.57-7.48-3-10.8-1"/>
	<path class="st5" d="M199.79,63c3.42-0.21,6.43,1.31,8.02,4.55"/>
	<path class="st5" d="M200.68,66.79c1.87,0.73,3.18,2.71,3.12,4.73"/>
	<path class="st5" d="M195.9,66.39c1.18,1.46,1.49,3.44,0.79,5.13"/>
</g>
</svg>
