<?xml version="1.0" encoding="UTF-8"?>
<svg id="Layer_1" data-name="Layer 1" xmlns="http://www.w3.org/2000/svg" version="1.1" viewBox="0 0 216 87.54">
  <defs>
    <style>
      .cls-1 {
        stroke: #5fa9a0;
      }

      .cls-1, .cls-2, .cls-3 {
        fill: none;
        stroke-miterlimit: 10;
      }

      .cls-1, .cls-3 {
        stroke-width: .88px;
      }

      .cls-2 {
        stroke-width: 1.21px;
      }

      .cls-2, .cls-3 {
        stroke: #3b8377;
      }

      .cls-4 {
        fill: #000;
        font-family: Didot-Italic, Didot;
        font-size: 54.48px;
        font-style: italic;
      }
    </style>
  </defs>
  <path class="cls-2" d="M12.48,77.82c.2-1.15,2.43-.61,2.08.5.52,2.67-2.52,5.15-5.17,4.54s-4.33-3.58-4.03-6.28,2.23-5.03,4.56-6.42,5.06-1.98,7.75-2.38c14.27-2.13,28.76.37,43.05,2.39,30.8,4.35,61.92,6.47,93.03,6.33,10.67-.05,21.36-.37,31.91-1.92,4.36-.64,8.87-1.57,12.32-4.3s5.47-7.76,3.48-11.68c-1.81-3.54-6.24-5.04-10.21-4.72-2.89.23-5.91,1.42-7.39,3.92s-.61,6.37,2.14,7.27,5.83-2.97,3.86-5.1"/>
  <path class="cls-3" d="M173.48,33.07c4.87-2.18,10.6-2.39,15.62-.56"/>
  <path class="cls-1" d="M172.14,28.66c4.46-5.25,11.41-8.3,18.29-8.02"/>
  <path class="cls-3" d="M165.54,28.99c.64-3.73,3.18-7.08,6.6-8.69"/>
  <path class="cls-3" d="M53.79,15.3c-4.25-4.63-15.96-8.99-27.68-3.71"/>
  <path class="cls-1" d="M40.68,57.91c3.2-2.89,1.09-5.79-.26-6.72-1.13-.78-3.4-1.45-5.02-1.48s-3.75,3.14-2.89,4.22c.73.92,2.66.65,3.5-.28s.79-2.19.4-3.25c-.75-2.02-2.73-3.52-5.1-4.37-3.06-1.1-8.8.29-9.18,5.84"/>
  <path class="cls-1" d="M58.6,15.44c-.88-5.29-5.27-9.82-10.53-10.85"/>
  <path class="cls-1" d="M51.8,20.07c-3.23-2.88-8.37-3.35-12.08-1.12"/>
  <path class="cls-1" d="M201.7,72.64c3.82-.24,7.19,1.47,8.97,5.09"/>
  <path class="cls-1" d="M202.69,76.88c2.1.82,3.56,3.04,3.49,5.29"/>
  <path class="cls-1" d="M197.35,76.43c1.32,1.64,1.66,3.85.88,5.73"/>
  <text class="cls-4" transform="translate(59.55 56.12)"><tspan x="0" y="0">Blog</tspan></text>
</svg>