<?xml version="1.0" encoding="UTF-8"?>
<svg id="Layer_1" data-name="Layer 1" xmlns="http://www.w3.org/2000/svg" version="1.1" viewBox="0 0 216 87.54">
  <defs>
    <style>
      .cls-1 {
        stroke-width: .78px;
      }

      .cls-1, .cls-2, .cls-3 {
        stroke: #3b8377;
      }

      .cls-1, .cls-2, .cls-3, .cls-4 {
        fill: none;
        stroke-miterlimit: 10;
      }

      .cls-2, .cls-4 {
        stroke-width: .8px;
      }

      .cls-5 {
        fill: #000;
        font-family: Didot-Italic, Didot;
        font-size: 32.95px;
        font-style: italic;
      }

      .cls-3 {
        stroke-width: 1.08px;
      }

      .cls-4 {
        stroke: #5fa9a0;
      }
    </style>
  </defs>
  <path class="cls-3" d="M22.05,71.31c.18-1.03,2.17-.55,1.86.45.46,2.39-2.26,4.61-4.63,4.06s-3.87-3.2-3.6-5.62,1.99-4.5,4.08-5.74,4.53-1.77,6.94-2.13c12.77-1.91,25.68.77,38.51,2.14,15.54,1.65,56.33,2.32,84.16,2.19,9.54-.04,47.33-2.4,50.43-4.84s4.9-6.94,3.11-10.45c-1.61-3.17-5.58-4.51-9.13-4.23-2.58.21-5.29,1.27-6.61,3.5s-.55,5.7,1.92,6.5,5.22-2.65,3.46-4.56"/>
  <path class="cls-2" d="M196.52,20.18c4.43-1.99,9.63-2.17,14.19-.51"/>
  <path class="cls-4" d="M193.86,17.29c4.05-4.78,10.37-7.54,16.62-7.29"/>
  <path class="cls-2" d="M190.31,16.31c.58-3.39,2.89-6.43,6-7.9"/>
  <path class="cls-2" d="M28.44,23.98c-3.1-4.79-12.94-10.47-24.25-7.51"/>
  <path class="cls-4" d="M5.87,58.12c1.8,3.48,4.84,2.3,5.97,1.32.94-.82,2.06-2.66,2.46-4.07s-1.89-4.02-3.04-3.51c-.97.43-1.19,2.19-.56,3.14s1.74,1.2,2.76,1.1c1.95-.2,3.72-1.58,5.02-3.47,1.67-2.44,1.78-7.8-3.01-9.42"/>
  <path class="cls-4" d="M34.01,25.48c.01-4.88-3.24-9.59-7.8-11.32"/>
  <path class="cls-1" d="M179.88,52.31s1.17-26.35,3.23-26.97-1.94,27.49-4.32,29.11"/>
  <path class="cls-1" d="M177.99,57.99c.11.15.52-.06.39-.3s-.24-.43-.51-.36-.63.14-.73.39c-.22.58.17,1.31.77,1.45s1.85-.29,1.85-1.46-1.03-1.52-1.65-1.48"/>
  <path class="cls-4" d="M25.74,28.48c-2.46-3.07-7-4.27-10.66-2.83"/>
  <path class="cls-4" d="M205.74,64.01c3.47-.21,6.54,1.34,8.16,4.63"/>
  <path class="cls-4" d="M206.64,67.86c1.91.74,3.24,2.76,3.17,4.8"/>
  <path class="cls-4" d="M201.78,67.45c1.2,1.49,1.51,3.5.8,5.21"/>
  <text class="cls-5" transform="translate(21.83 56.24)"><tspan x="0" y="0">Contact Me</tspan></text>
</svg>