<?xml version="1.0" encoding="utf-8"?>
<!-- Generator: Adobe Illustrator 28.2.0, SVG Export Plug-In . SVG Version: 6.00 Build 0)  -->
<svg version="1.1" id="Layer_1" xmlns="http://www.w3.org/2000/svg" xmlns:xlink="http://www.w3.org/1999/xlink" x="0px" y="0px"
	 viewBox="0 0 612.9 612" style="enable-background:new 0 0 612.9 612;" xml:space="preserve">
<style type="text/css">
	.st0{fill:#FFFFFF;stroke:#000000;stroke-width:12.5694;stroke-miterlimit:10;}
	.st1{fill:#3B8377;}
	.st2{fill:none;stroke:#000000;stroke-width:10.0555;stroke-miterlimit:10;}
	.st3{fill:none;stroke:#000000;stroke-width:1.2341;stroke-miterlimit:10;}
</style>
<g>
	<circle class="st0" cx="306.4" cy="306" r="241.7"/>
	<path class="st1" d="M321,115.8c0-9.5-7.8-17.3-17.3-17.3s-17.3,7.8-17.3,17.3c0,7.8,5.2,14.4,12.3,16.6V273h10.1V132.3
		C315.9,130.2,321,123.6,321,115.8z M303.7,125.5c-5.4,0-9.8-4.4-9.8-9.8s4.4-9.8,9.8-9.8s9.8,4.4,9.8,9.8S309.1,125.5,303.7,125.5z
		"/>
	<path class="st2" d="M210.4,527.9V364.7c40.7-17.6,45.3-55.5,45.3-55.5v-40.4h52.9"/>
	<line class="st3" x1="364.6" y1="382.4" x2="364.6" y2="382.4"/>
	<g>
		<path class="st1" d="M303.7,351.2c7.5,0,13.5,6.1,13.5,13.5s-6.1,13.5-13.5,13.5s-13.5-6.1-13.5-13.5S296.2,351.2,303.7,351.2
			 M303.7,343.6c-11.6,0-21.1,9.5-21.1,21.1s9.5,21.1,21.1,21.1s21.1-9.5,21.1-21.1C324.8,353.1,315.4,343.6,303.7,343.6
			L303.7,343.6z"/>
	</g>
	<path d="M411.1,462.1L373.4,392l0.1,0l-64.8-128.1l-3.5,0l-1.5,129.2l0.1,0v84.9c1.8-0.3,4.7,0.3,5.2,0.8v-84.6l19.6,4.4l17.4-16.9
		l16.6,6.1l41.8,77.6L411.1,462.1z"/>
	<g>
		<path d="M289.3,511.5l0.7,0c0.6,2.3,1.3,4.3,2.1,5.8c0.8,1.6,1.7,2.8,2.6,3.8s1.9,1.8,2.9,2.3s2,0.9,3.1,1.1c1,0.2,2,0.3,2.9,0.3
			s1.8,0,2.6,0c2.3-0.1,4.1-0.5,5.6-1.3c1.4-0.8,2.6-1.7,3.4-2.8s1.4-2.3,1.7-3.5s0.4-2.4,0.4-3.4c-0.1-1.5-0.4-2.8-1-3.9
			c-0.6-1-1.4-1.9-2.2-2.7s-1.9-1.3-2.9-1.7c-1-0.4-2-0.8-2.9-1l-7.5-2c-3.5-0.9-6.2-2.2-8.1-4c-1.9-1.7-2.9-4-3-7
			c-0.1-1.9,0.2-3.8,0.8-5.4c0.6-1.7,1.5-3.2,2.7-4.4s2.7-2.3,4.4-3s3.6-1.2,5.7-1.3c1.5-0.1,2.8,0,3.8,0.2c1,0.2,1.9,0.5,2.7,0.8
			c0.7,0.3,1.4,0.6,2,0.8c0.6,0.2,1.2,0.3,1.8,0.3c0.6,0,0.9-0.1,1.1-0.3c0.2-0.2,0.4-0.5,0.8-1.2l0.9,0l0.5,11.7l-0.8,0
			c-0.3-1.5-0.8-3-1.5-4.4c-0.7-1.4-1.5-2.7-2.6-3.7c-1-1.1-2.3-1.9-3.7-2.5c-1.4-0.6-3.1-0.9-4.9-0.8c-1,0-2.2,0.2-3.4,0.6
			s-2.4,0.9-3.4,1.6c-1,0.7-1.9,1.7-2.6,2.8c-0.7,1.1-1,2.6-0.9,4.3c0,1.4,0.4,2.5,1,3.5c0.6,1,1.4,1.7,2.3,2.4s1.9,1.1,3,1.6
			c1.1,0.4,2.2,0.8,3.4,1.1l7.9,2.1c0.8,0.2,1.9,0.5,3.1,0.9s2.5,1,3.7,1.8s2.3,1.9,3.2,3.3c0.9,1.4,1.4,3.2,1.5,5.4
			c0.1,2-0.2,4-0.9,5.8c-0.7,1.9-1.7,3.5-3.1,5c-1.4,1.5-3,2.7-5,3.6c-2,0.9-4.3,1.4-6.8,1.5c-0.9,0-1.7,0.1-2.4,0.1
			c-0.7,0-1.3,0-2-0.1c-0.6-0.1-1.2-0.1-1.8-0.2c-0.6-0.1-1.3-0.2-2-0.4c-0.9-0.2-1.8-0.5-2.8-0.8c-1-0.3-1.9-0.4-2.6-0.4
			c-0.6,0-1.1,0.2-1.3,0.4s-0.4,0.6-0.6,1.1l-1,0L289.3,511.5z"/>
		<path d="M328.2,495.1l4.9-1l-1.6-8.2c0.4,0.1,0.7,0.1,1,0.1s0.8,0,1.5-0.2c0.6-0.1,1.2-0.3,1.6-0.5c0.4-0.2,0.8-0.6,1.2-1l1.7,8.7
			l9-1.8l0.2,0.9l-9,1.8l4.1,20.8c0.2,1.2,0.5,2.1,0.9,2.8c0.4,0.7,0.8,1.2,1.3,1.5c0.5,0.3,0.9,0.5,1.4,0.5s0.9,0,1.3-0.1
			c1.5-0.3,2.6-1.1,3.3-2.3c0.7-1.3,1-2.6,1-4.1l1,0.1c0,0.6-0.1,1.2-0.2,2c-0.1,0.7-0.4,1.5-0.8,2.2c-0.4,0.7-1,1.4-1.8,1.9
			c-0.8,0.6-1.8,1-3.1,1.2c-3.2,0.6-5.5,0.4-7-0.5s-2.5-2.6-2.9-4.8l-4-20.2l-4.9,1L328.2,495.1z"/>
		<path d="M392.5,505.8l-9.8,3.4l-2.1-6.2l-0.1,0c-0.1,0.9-0.2,1.9-0.5,2.9c-0.2,1-0.6,2-1.1,2.9c-0.5,0.9-1.2,1.8-2,2.6
			c-0.9,0.8-2,1.4-3.3,1.9c-1.6,0.6-3,0.8-4.2,0.8c-1.1,0-2.1-0.1-2.8-0.3c-0.4-0.1-0.8-0.2-1.2-0.4c-0.5-0.2-0.9-0.5-1.4-0.9
			c-0.5-0.4-1-1-1.5-1.8s-1-1.8-1.4-3l-6-17.4l-4.7,1.6l-0.3-0.9l10-3.5l6.5,18.8c0.4,1.1,0.8,2,1.2,2.9c0.5,0.9,1,1.5,1.6,2.1
			s1.4,0.9,2.1,1c0.8,0.2,1.7,0.1,2.8-0.3c0.9-0.3,1.7-0.9,2.5-1.8c0.8-0.9,1.4-1.9,1.8-3.2c0.5-1.2,0.7-2.7,0.8-4.2
			c0-1.5-0.2-3.2-0.8-4.9l-4.9-14.2l-4.6,1.6l-0.3-0.9l9.9-3.5l8.8,25.4l4.7-1.6L392.5,505.8z"/>
		<path d="M398.1,452.6l6.9-2l22.3,38l2.2-1.2l0.4,0.8l-9.1,5.1l-2.8-4.9l-0.1,0.1c0.1,0.5,0.2,1.2,0.2,2s0,1.7-0.3,2.6
			c-0.2,0.9-0.7,1.9-1.3,2.8c-0.6,0.9-1.6,1.8-2.9,2.5c-1.6,0.9-3.4,1.5-5.3,1.6c-1.9,0.1-3.7-0.1-5.5-0.7c-1.8-0.6-3.5-1.4-5-2.6
			c-1.5-1.2-2.8-2.6-3.8-4.4c-1-1.7-1.5-3.5-1.8-5.4c-0.2-1.9-0.1-3.7,0.3-5.5c0.4-1.8,1.2-3.4,2.2-4.9s2.4-2.7,4-3.6
			c2.1-1.2,4-1.6,5.9-1.3s3.5,1,4.8,2.2l0.1-0.1l-5.1-8.1L398.1,452.6z M399.4,488.5c1.1,2,2.2,3.7,3.2,5.2c1,1.5,2.1,2.7,3.2,3.6
			s2.2,1.4,3.5,1.5c1.2,0.1,2.6-0.3,4.2-1.2c1.6-0.9,2.6-2,3.2-3.2c0.6-1.2,0.8-2.5,0.8-3.9s-0.4-2.8-1-4.2c-0.6-1.4-1.2-2.8-1.9-4
			c-0.8-1.5-1.6-2.7-2.2-3.8s-1.3-1.9-1.9-2.7s-1.2-1.3-1.8-1.8c-0.6-0.5-1.2-0.8-1.9-1.1c-1-0.4-2.1-0.6-3.2-0.6
			c-1.2,0-2.5,0.4-3.9,1.2c-1.3,0.7-2.2,1.6-2.8,2.6s-0.8,2.1-0.7,3.4s0.4,2.6,1,4.1C397.6,485.1,398.4,486.7,399.4,488.5z"/>
		<path d="M413.9,443.8c-0.6-0.8-0.8-1.6-0.7-2.5c0.1-0.9,0.6-1.7,1.3-2.3c0.8-0.6,1.6-0.8,2.5-0.7c0.9,0.1,1.7,0.6,2.3,1.3
			c0.6,0.8,0.8,1.6,0.7,2.5c-0.1,0.9-0.6,1.7-1.3,2.3c-0.8,0.6-1.6,0.8-2.5,0.7C415.3,445,414.5,444.6,413.9,443.8z M435.9,479.8
			l4-3l-15.7-20.7l-4,3l-0.5-0.7l8.4-6.4l16.2,21.4l4-3l0.5,0.7l-12.4,9.4L435.9,479.8z"/>
		<path d="M445.8,456.1c-1.5-1.5-2.5-3.2-3.1-5.2c-0.6-1.9-0.9-3.9-0.8-5.8c0.1-2,0.5-3.8,1.3-5.6c0.8-1.8,1.8-3.3,3-4.5
			c1.2-1.2,2.7-2.2,4.5-2.9c1.8-0.7,3.7-1.1,5.6-1.2c2-0.1,3.9,0.2,5.8,0.9s3.6,1.7,5.1,3.2c1.4,1.5,2.5,3.1,3.1,5
			c0.6,1.9,0.9,3.8,0.9,5.7s-0.5,3.8-1.2,5.6s-1.8,3.4-3.1,4.7c-1.4,1.3-3,2.4-4.8,3.1c-1.8,0.7-3.7,1.1-5.7,1.1s-3.8-0.3-5.7-1
			C448.9,458.6,447.2,457.5,445.8,456.1z M450.4,451.5c2.1,2.2,4,3.8,5.6,4.7c1.6,1,3,1.5,4.3,1.7c1.2,0.1,2.3,0,3.3-0.5
			s1.8-1.2,2.7-2c0.8-0.8,1.5-1.7,2-2.6s0.7-2,0.6-3.3s-0.7-2.7-1.6-4.3c-0.9-1.6-2.5-3.5-4.6-5.7c-1.8-1.9-3.5-3.3-4.9-4.3
			c-1.5-1-2.9-1.6-4.1-1.9c-1.3-0.3-2.5-0.2-3.6,0.2s-2.2,1.1-3.2,2.2c-1,1-1.8,2.1-2.2,3.2c-0.4,1.1-0.5,2.3-0.3,3.6
			c0.3,1.3,0.9,2.7,1.9,4.2C447.2,448,448.6,449.7,450.4,451.5z"/>
		<path d="M476.6,431l0.4-0.6c1,0.4,2.1,0.7,3.2,1c1.1,0.3,2.3,0.3,3.5,0.2c1.2-0.1,2.4-0.5,3.5-1c1.1-0.6,2.2-1.5,3.2-2.9
			c0.8-1.1,1.2-2.3,1.2-3.7c0-1.4-0.8-2.6-2.3-3.8c-1.3-1-2.5-1.3-3.5-1.1c-1,0.3-2,0.7-3,1.4l-4.4,3c-0.6,0.4-1.2,0.8-1.9,1.2
			s-1.5,0.7-2.4,0.9c-0.9,0.2-1.8,0.1-2.7-0.1c-1-0.2-2-0.8-3.2-1.6c-1-0.7-1.7-1.6-2.3-2.6s-0.9-2.1-1-3.2s0-2.3,0.3-3.4
			s0.9-2.3,1.7-3.4c0.6-0.8,1.1-1.3,1.6-1.7c0.5-0.4,0.9-0.7,1.3-0.9s0.7-0.5,1.1-0.7c0.3-0.2,0.6-0.5,0.9-0.9
			c0.3-0.4,0.4-0.8,0.2-1.1l0.4-0.6l5.9,4.4l-0.4,0.6c-0.9-0.3-1.9-0.6-2.8-0.8c-0.9-0.2-1.9-0.3-2.7-0.3c-0.9,0-1.7,0.2-2.5,0.6
			s-1.5,1-2.2,1.9c-1.2,1.7-1.8,3.2-1.8,4.7c0.1,1.5,0.7,2.7,1.9,3.6c1.1,0.8,2.2,1.1,3.4,0.7c1.1-0.4,2.5-1.1,4.2-2.2l4.1-2.8
			c1.8-1.2,3.5-2,5.3-2.3s3.4,0.1,5,1.3c0.9,0.7,1.7,1.6,2.3,2.6c0.6,1,1,2.2,1.1,3.4c0.1,1.2,0,2.5-0.3,3.8s-1,2.6-2,4
			c-0.6,0.8-1.2,1.4-1.8,1.9c-0.6,0.5-1.2,1-1.8,1.4c-0.6,0.4-1.1,0.8-1.6,1.1c-0.5,0.3-0.9,0.7-1.2,1.1c-0.3,0.4-0.4,0.7-0.4,1
			c0,0.3,0.1,0.5,0.2,0.8l-0.4,0.6L476.6,431z"/>
	</g>
	<g>
		<path d="M115.6,277.8l0.2-0.7c2.4,0.2,4.4,0.1,6.2-0.2s3.2-0.7,4.5-1.3c1.2-0.6,2.3-1.3,3.1-2.1c0.8-0.8,1.5-1.7,2-2.6
			s0.9-1.8,1.2-2.7s0.6-1.7,0.8-2.5c0.6-2.2,0.8-4.1,0.5-5.7c-0.3-1.6-0.8-3-1.6-4.1c-0.8-1.1-1.7-2-2.8-2.7s-2.1-1.1-3.1-1.4
			c-1.4-0.4-2.8-0.5-4-0.2c-1.2,0.2-2.3,0.7-3.2,1.3c-1,0.6-1.8,1.4-2.5,2.2s-1.3,1.7-1.8,2.5l-4.2,6.5c-2,3.1-4.1,5.2-6.3,6.5
			c-2.2,1.2-4.7,1.5-7.6,0.6c-1.9-0.5-3.5-1.4-4.9-2.5c-1.4-1.1-2.5-2.4-3.3-4c-0.8-1.5-1.3-3.2-1.5-5.1c-0.2-1.9,0-3.8,0.6-5.8
			c0.4-1.4,0.9-2.6,1.4-3.5c0.5-0.9,1-1.7,1.6-2.3c0.5-0.6,1-1.2,1.4-1.7c0.4-0.5,0.7-1,0.9-1.6c0.2-0.5,0.2-0.9,0.1-1.1
			c-0.1-0.2-0.4-0.6-0.9-1.1l0.2-0.9l11.3,3.2l-0.2,0.8c-1.6-0.2-3.1-0.2-4.7,0.1c-1.6,0.2-3,0.6-4.3,1.3s-2.5,1.6-3.5,2.7
			c-1,1.2-1.8,2.6-2.3,4.4c-0.3,1-0.5,2.1-0.5,3.4s0.1,2.5,0.4,3.8c0.4,1.2,1,2.3,1.9,3.3c0.9,1,2.2,1.7,3.8,2.2
			c1.3,0.4,2.5,0.4,3.6,0.1c1.1-0.3,2.1-0.8,3-1.4s1.7-1.5,2.4-2.4c0.7-0.9,1.4-1.9,2.1-2.9l4.5-6.9c0.5-0.7,1.1-1.6,1.8-2.7
			c0.8-1.1,1.7-2.1,2.9-3c1.2-0.9,2.5-1.6,4.1-2s3.5-0.3,5.6,0.3c1.9,0.6,3.7,1.4,5.3,2.7c1.6,1.2,2.8,2.7,3.8,4.5
			c1,1.8,1.6,3.7,1.8,5.9c0.3,2.2,0,4.5-0.6,7c-0.2,0.9-0.5,1.6-0.7,2.3c-0.2,0.7-0.4,1.3-0.7,1.8c-0.2,0.6-0.5,1.1-0.8,1.7
			c-0.3,0.5-0.6,1.1-1,1.8c-0.5,0.8-1,1.6-1.6,2.4s-1,1.6-1.2,2.4c-0.2,0.6-0.2,1.1,0,1.4c0.2,0.3,0.5,0.6,0.8,0.9l-0.3,0.9
			L115.6,277.8z"/>
		<path d="M152.9,218.1c0.1,0.7,0.2,1.5,0.1,2.3s-0.3,1.8-0.9,2.8c-0.9,1.9-2,3-3.2,3.4s-2.6,0.4-4.2,0l-0.1,0.1
			c0.3,0.3,0.6,0.8,1,1.3c0.4,0.5,0.7,1.2,0.9,2c0.2,0.8,0.2,1.8,0.1,2.8s-0.6,2.4-1.3,3.8c-0.8,1.6-1.6,2.8-2.5,3.6
			s-1.7,1.3-2.5,1.6c-0.8,0.3-1.6,0.3-2.4,0.1c-0.8-0.2-1.4-0.4-2-0.7c-1.4-0.7-2.3-1.5-2.8-2.4c-0.5-0.9-0.8-2-0.9-3.1
			c-0.1-1.1,0-2.3,0.3-3.5c0.2-1.2,0.4-2.4,0.6-3.7c0.2-1.5,0.4-2.7,0.5-3.7c0.1-1,0.1-1.8-0.1-2.5c-0.2-0.7-0.6-1.3-1.2-1.8
			c-0.6-0.5-1.5-1.1-2.6-1.6c-0.9-0.5-1.8-0.8-2.6-1.1s-1.5-0.4-2.2-0.3s-1.3,0.3-1.9,0.7s-1.1,1.1-1.6,2.1
			c-0.6,1.3-0.9,2.4-0.9,3.5s0.5,1.8,1.5,2.3c0.7,0.3,1.3,0.6,2,0.8c0.7,0.2,1.2,0.4,1.5,0.5c0.5,0.3,0.9,0.7,1.1,1.3
			c0.2,0.6,0.1,1.2-0.3,1.9c-0.6,1.3-1.3,1.9-1.9,2c-0.6,0.1-1.3-0.1-2-0.4c-0.8-0.4-1.6-1-2.1-1.8s-1-1.7-1.2-2.7s-0.2-2.2,0-3.6
			c0.2-1.3,0.7-2.7,1.4-4.2c0.9-1.8,1.9-3.1,2.9-4.1s2.1-1.6,3.2-2c1.1-0.4,2.2-0.4,3.3-0.3s2.2,0.5,3.2,1l14.4,7.2
			c1.1,0.6,2,0.8,2.5,0.6c0.6-0.1,1-0.6,1.3-1.2c0.2-0.4,0.4-0.9,0.4-1.4s0.1-1.1,0-1.7L152.9,218.1z M134.2,221.4l-0.1,0.1
			c0.5,0.3,0.6,1.2,0.5,2.7l-0.4,5.2c-0.1,1.5,0.1,2.8,0.7,3.9c0.6,1.1,1.5,2,2.9,2.7c0.6,0.3,1.2,0.5,1.9,0.7
			c0.7,0.2,1.3,0.3,2,0.2c0.6-0.1,1.2-0.3,1.8-0.7s1.1-1.1,1.6-1.9c0.6-1.3,0.9-2.4,0.8-3.5s-0.5-2-1.1-2.8
			c-0.6-0.8-1.3-1.5-2.2-2.1s-1.7-1.1-2.5-1.5L134.2,221.4z"/>
		<path d="M153.7,216.9l2.9-4.1l-21.2-15l-2.9,4.1l-0.7-0.5l6-8.5l5.3,3.8l0.1-0.1c-0.4-0.5-0.9-1.2-1.3-2c-0.4-0.8-0.8-1.7-1-2.7
			c-0.2-1-0.3-2.1-0.1-3.1s0.6-2.2,1.4-3.3c0.6-0.8,1.2-1.4,1.9-1.8c0.7-0.4,1.4-0.7,2.1-0.8c0.7-0.1,1.3-0.1,2,0.1
			c0.6,0.2,1.2,0.5,1.8,0.9c1.2,0.8,1.8,1.6,1.8,2.4s-0.2,1.6-0.7,2.3c-1.1,1.6-2.1,2-3.1,1.3c-0.3-0.2-0.5-0.4-0.7-0.6
			c-0.1-0.2-0.3-0.4-0.4-0.6c-0.1-0.2-0.3-0.5-0.5-0.7c-0.2-0.2-0.5-0.5-1-0.9c-1.1-0.8-2.1-0.6-3,0.6c-0.4,0.6-0.6,1.3-0.6,2.2
			c0,0.9,0.2,2,0.6,3.1c0.4,1.1,1.1,2.3,2,3.4s2.1,2.3,3.5,3.3l12.1,8.6l3.2-4.6l0.7,0.5l-9.4,13.2L153.7,216.9z"/>
		<path d="M189.1,175c-0.1,0.7-0.3,1.4-0.6,2.2s-0.9,1.6-1.6,2.4c-1.4,1.5-2.8,2.3-4.1,2.3s-2.6-0.4-4-1.2l-0.1,0.1
			c0.2,0.4,0.3,0.9,0.6,1.5c0.2,0.6,0.3,1.4,0.2,2.2c-0.1,0.8-0.3,1.7-0.8,2.7c-0.5,1-1.2,2.1-2.4,3.2c-1.3,1.3-2.4,2.2-3.5,2.7
			c-1.1,0.5-2,0.7-2.9,0.8c-0.9,0-1.6-0.2-2.3-0.6c-0.7-0.4-1.2-0.8-1.7-1.2c-1.1-1.1-1.8-2.1-2-3.2c-0.2-1.1-0.2-2.1,0.1-3.2
			c0.3-1.1,0.7-2.2,1.3-3.2s1.1-2.2,1.7-3.4c0.6-1.4,1.2-2.5,1.6-3.4c0.4-0.9,0.6-1.7,0.6-2.4s-0.2-1.4-0.6-2.1
			c-0.4-0.7-1.1-1.4-2-2.4c-0.7-0.7-1.4-1.3-2.1-1.8c-0.7-0.5-1.4-0.8-2-0.9c-0.7-0.2-1.3-0.1-2,0.1c-0.7,0.3-1.4,0.8-2.1,1.6
			c-1,1-1.6,2-1.9,3.1c-0.3,1,0,1.9,0.8,2.7c0.5,0.5,1.1,1,1.7,1.4s1,0.7,1.3,1c0.4,0.4,0.6,0.9,0.6,1.5c0,0.6-0.3,1.2-0.9,1.8
			c-1,1-1.8,1.5-2.4,1.4c-0.6-0.1-1.2-0.4-1.8-1c-0.7-0.7-1.2-1.4-1.5-2.4c-0.3-0.9-0.4-1.9-0.3-3c0.1-1.1,0.5-2.2,1.1-3.4
			c0.6-1.2,1.5-2.4,2.6-3.6c1.4-1.4,2.7-2.4,4-3.1c1.3-0.6,2.5-0.9,3.7-0.9s2.3,0.2,3.3,0.7c1,0.5,1.9,1.1,2.8,1.9l11.6,11.2
			c0.9,0.9,1.6,1.3,2.2,1.3c0.6,0,1.1-0.2,1.6-0.8c0.3-0.3,0.6-0.8,0.9-1.2c0.2-0.5,0.4-1,0.5-1.6L189.1,175z M170.4,172.6
			L170.4,172.6c0.2,0.5,0.2,1.4-0.4,2.8l-2,4.8c-0.6,1.4-0.7,2.7-0.5,3.9s0.9,2.4,2,3.4c0.5,0.4,1,0.9,1.6,1.3s1.2,0.6,1.8,0.8
			s1.3,0.1,2-0.1c0.7-0.2,1.4-0.7,2.1-1.4c1-1,1.6-2.1,1.8-3.1c0.2-1.1,0.1-2.1-0.2-3s-0.8-1.9-1.5-2.7c-0.6-0.8-1.3-1.6-1.9-2.2
			L170.4,172.6z"/>
		<path d="M189.5,174.1l4.1-2.9l-26-36.6l-4.1,2.9l-0.5-0.7l8.6-6.1l14.7,20.8l0.1-0.1c-0.1-0.6-0.2-1.4-0.3-2.4
			c-0.1-1,0.1-2,0.3-3.2c0.3-1.1,0.8-2.3,1.5-3.5c0.7-1.2,1.8-2.3,3.3-3.3c2.3-1.6,4.6-2.4,6.9-2.3s4.3,1.4,6,3.8l10.9,15.4l4.1-2.9
			l0.5,0.7l-12.7,9l-0.5-0.7l4.1-2.9l-12.1-17.1c-1-1.4-2.1-2.3-3.4-2.7c-1.3-0.4-2.6-0.1-4,0.8c-1.1,0.8-2,1.8-2.7,3
			c-0.7,1.2-1.1,2.5-1.2,4c-0.1,1.4,0,2.9,0.4,4.4c0.4,1.5,1.1,3,2.1,4.4l8.5,11.9l4.1-2.9l0.5,0.7l-12.7,9L189.5,174.1z"/>
	</g>
	<g>
		<path d="M228.9,132.3l0.7-0.2c1.2,2,2.5,3.7,3.8,4.9c1.2,1.2,2.5,2.2,3.7,2.9c1.2,0.7,2.4,1.1,3.5,1.3c1.1,0.2,2.2,0.2,3.2,0.1
			c1-0.1,2-0.3,2.9-0.6c0.9-0.3,1.7-0.6,2.5-0.8c2.1-0.8,3.8-1.8,4.9-2.9c1.1-1.1,1.9-2.4,2.4-3.7c0.5-1.3,0.6-2.6,0.5-3.8
			c-0.1-1.3-0.3-2.4-0.7-3.4c-0.5-1.4-1.2-2.5-2.1-3.4c-0.9-0.8-1.9-1.4-2.9-1.8c-1.1-0.4-2.2-0.7-3.3-0.8s-2.1-0.1-3.1-0.1
			l-7.8,0.4c-3.6,0.2-6.6-0.2-8.9-1.3c-2.3-1.1-3.9-3-5-5.8c-0.7-1.8-1-3.6-0.9-5.4c0.1-1.8,0.5-3.5,1.3-5s1.9-3,3.2-4.2
			s3.1-2.2,5-2.9c1.4-0.5,2.6-0.8,3.7-0.9c1-0.1,2-0.1,2.8-0.1c0.8,0.1,1.5,0.1,2.1,0.2c0.6,0,1.2,0,1.8-0.2c0.5-0.2,0.9-0.4,1-0.6
			s0.2-0.7,0.4-1.3l0.9-0.3l4,11l-0.7,0.3c-0.8-1.4-1.7-2.6-2.8-3.8c-1.1-1.1-2.3-2.1-3.6-2.8c-1.3-0.7-2.7-1.1-4.3-1.3
			c-1.6-0.2-3.2,0.1-4.9,0.7c-1,0.4-2,0.9-3.1,1.6s-2,1.6-2.8,2.6c-0.8,1-1.3,2.2-1.6,3.5s-0.1,2.8,0.5,4.4c0.5,1.3,1.1,2.3,2,3
			s1.8,1.2,2.9,1.6s2.2,0.5,3.4,0.6c1.2,0.1,2.4,0,3.5,0l8.2-0.4c0.9,0,1.9-0.1,3.3-0.1s2.7,0.2,4.1,0.6c1.4,0.4,2.8,1.1,4,2.2
			c1.3,1.1,2.3,2.6,3,4.7c0.7,1.9,1,3.8,0.9,5.8s-0.5,3.9-1.4,5.7c-0.9,1.8-2.1,3.4-3.7,4.9c-1.6,1.5-3.6,2.7-6,3.5
			c-0.9,0.3-1.6,0.6-2.3,0.8c-0.7,0.2-1.3,0.4-1.9,0.5s-1.2,0.2-1.8,0.4c-0.6,0.1-1.3,0.2-2.1,0.2c-0.9,0.1-1.9,0.1-2.9,0.1
			c-1.1,0-1.9,0.1-2.6,0.4c-0.6,0.2-1,0.5-1.1,0.8s-0.2,0.7-0.2,1.2l-0.9,0.3L228.9,132.3z"/>
		<path d="M270.9,132.2l4.9-0.9l-4.8-25.5l-4.9,0.9l-0.2-0.9l10.4-2l5,26.4l4.9-0.9l0.2,0.9l-15.3,2.9L270.9,132.2z M267.2,90.2
			c-0.2-0.9,0-1.8,0.5-2.6s1.3-1.3,2.2-1.4c0.9-0.2,1.8,0,2.6,0.5s1.3,1.3,1.4,2.2s0,1.8-0.5,2.6s-1.3,1.3-2.2,1.4
			c-0.9,0.2-1.8,0-2.6-0.5C267.9,91.9,267.4,91.1,267.2,90.2z"/>
		<path d="M353.6,133.2l-10.3-1.6l1-6.5l-0.1,0c-0.5,0.8-1.1,1.6-1.8,2.4c-0.7,0.8-1.5,1.5-2.4,2.1s-1.9,1-3,1.3
			c-1.1,0.3-2.4,0.3-3.8,0.1c-1.7-0.3-3.1-0.7-4.1-1.2c-1-0.6-1.8-1.1-2.3-1.6c-0.3-0.3-0.6-0.6-0.9-0.9c-0.3-0.4-0.6-0.9-0.8-1.5
			c-0.2-0.6-0.4-1.4-0.4-2.3c-0.1-0.9,0-2,0.2-3.3l2.8-18.2l-4.9-0.8l0.1-0.9l10.4,1.6l-3,19.7c-0.2,1.1-0.2,2.2-0.2,3.1
			s0.2,1.8,0.5,2.6c0.3,0.8,0.8,1.4,1.4,1.9c0.6,0.5,1.5,0.9,2.6,1c0.9,0.1,2,0,3-0.4c1.1-0.4,2.1-1.1,3.1-1.9c1-0.9,1.9-2,2.6-3.4
			c0.8-1.3,1.3-2.9,1.6-4.7l2.3-14.8l-4.9-0.8l0.1-0.9l10.4,1.6l-4.1,26.5l4.9,0.8L353.6,133.2z"/>
		<path d="M358.1,133.2l3.2,1.1l12.3-8.3l-4.5-16.4l-3.4-1.2l0.3-0.9l14.4,5l-0.3,0.9l-4.8-1.7l3.1,11.4l9.8-6.9l-4.5-1.6l0.3-0.9
			l9,3.1l-0.3,0.9l-3.2-1.1l-10.8,7.5l5,18l3.4,1.2l-0.3,0.9l-14.3-5l0.3-0.9l4.8,1.7l-3.6-12.9l-11.3,7.7l4.5,1.6l-0.3,0.9l-9-3.1
			L358.1,133.2z"/>
	</g>
</g>
</svg>
