<?xml version="1.0" encoding="UTF-8"?>
<svg xmlns="http://www.w3.org/2000/svg" version="1.1" viewBox="0 0 695.7 235.4">
  <defs>
    <style>
      .cls-1 {
        stroke-width: 2px;
      }

      .cls-1, .cls-2, .cls-3, .cls-4 {
        fill: none;
        stroke: #3b8377;
        stroke-miterlimit: 10;
      }

      .cls-5 {
        font-family: Didot, Didot;
        font-size: 65.6px;
        isolation: isolate;
      }

      .cls-2 {
        stroke-width: 2.3px;
      }

      .cls-3 {
        stroke-width: 2.1px;
      }

      .cls-6 {
        fill: #3b8377;
      }
    </style>
  </defs>
  <!-- Generator: Adobe Illustrator 28.6.0, SVG Export Plug-In . SVG Version: 1.2.0 Build 709)  -->
  <g>
    <g id="Layer_1">
      <text class="cls-5" transform="translate(44.7 135.7)"><tspan x="0" y="0">Sarah Sioux Studios</tspan></text>
      <path class="cls-3" d="M36.9,156.8c.2,1.8-1.6,3.3-3.4,3.2-1.8-.2-3.2-1.8-3.3-3.6s.9-3.5,2.3-4.5,3.3-1.3,5-1.2c2.3.2,4.6,1.1,6.1,2.9s2.2,4.3,1.4,6.5c-1,2.9-4.2,4.6-7.2,5.3-6.3,1.5-14.6,1.4-18.5-4.6-2-3.1-2.3-7.1-.9-10.5,2.9-6.9,10.2-7.1,16.7-7.6,10.4-.7,20.9.6,31.3,1.1,36.3,1.9,72.6,3.5,108.9,4.7,36.5,1.2,73,2.1,109.5,2.6,36.5.5,73,.7,109.5.5s73-.8,109.5-1.7c36.5-.9,73-2.2,109.5-3.8,9.9-.4,19.7-1.1,29.6-1.4,9.5-.3,18.7,0,28.2-2,4.1-.8,8.7-2.4,10-6.4.9-2.6,0-5.5-1.6-7.7-2.8-3.7-7.8-5.5-12.3-4.5-1.7.4-3.3,1.2-4.3,2.5-1,1.3-1.4,3.3-.5,4.8.8,1.5,3,2.1,4.4,1.1"/>
      <path class="cls-1" d="M647.4,30.5c-2.8-.8-5.8.9-7.3,3.2-1.6,2.4-2,5.3-2.2,8.2-.3,8.2,1.7,16.3.9,24.5s-5.7,16.9-13.8,18c-2.2.3-4.6,0-6.4-1.3s-2.9-3.7-2.3-5.8c.8-2.9,4.1-4.2,7-4.9,15.9-4.1,33.2-4.2,47.5-12.2,4.6-2.6,9.1-6.6,9.5-11.8.4-6.2-5.7-11.5-11.9-12.2-6.9-.8-17.5,2.7-21.5,8.5,7.7,3.9,7.2-12.3.5-14.2Z"/>
      <g>
        <path class="cls-1" d="M43.7,49.4c.5-3.4,1-6.7,1.4-10.1"/>
        <path class="cls-1" d="M43,56.2c.2,3.4.5,6.7.7,10.1"/>
        <path class="cls-1" d="M46.7,53.5c4.1.2,8.2.5,12.3.7"/>
        <path class="cls-1" d="M27.4,51.8c4.1.2,8.2.5,12.3.7"/>
        <path class="cls-1" d="M49.9,49c3-2.1,6-4.2,9-6.3"/>
        <path class="cls-1" d="M38.7,57.6c-1.8,2.8-3.6,5.6-5.4,8.4"/>
        <path class="cls-1" d="M48.4,58.2c2.4,2.4,4.8,4.8,7.2,7.2"/>
        <path class="cls-1" d="M31.5,40.8l7.2,7.2"/>
      </g>
      <g>
        <path class="cls-4" d="M648.8,191.7c.5-3.4,1-6.7,1.4-10.1"/>
        <path class="cls-4" d="M648.1,198.4c.2,3.4.5,6.7.7,10.1"/>
        <path class="cls-4" d="M651.8,195.7c4.1.2,8.2.5,12.3.7"/>
        <path class="cls-4" d="M632.5,194.1c4.1.2,8.2.5,12.3.7"/>
        <path class="cls-4" d="M655,191.2c3-2.1,6-4.2,9-6.3"/>
        <path class="cls-4" d="M643.8,199.9l-5.4,8.4"/>
        <path class="cls-4" d="M653.5,200.5c2.4,2.4,4.8,4.8,7.2,7.2"/>
        <path class="cls-4" d="M636.5,183c2.4,2.4,4.8,4.8,7.2,7.2"/>
      </g>
      <path class="cls-2" d="M307.8,167.9c11.1-13,25.8-22.6,43.6-28.5"/>
      <path class="cls-2" d="M333.3,169.7c9.8-14.2,26.2-23.5,43.4-24.7"/>
      <g>
        <path class="cls-4" d="M54.2,200.1c24.2-13.2,51.5-20.7,79-21.8"/>
        <path class="cls-4" d="M54.2,200.1c11.5-6.3,23.9-11.3,36.3-14.9"/>
        <path class="cls-4" d="M68.9,192.6c-5.8-2.8-13.5-3.1-19.7-1.4s-12,5-17.6,8.1c7.8-.5,15.7-.3,23.5.5"/>
        <path class="cls-4" d="M120.3,179.2c-4.2-.8-7.5-2.6-10.5-5.7,12.7-1.9,25.8-.3,37.6,4.6-9.5,3.3-19,6.7-28.5,10-.2-2.2-.4-4.4-.6-6.6"/>
        <path class="cls-4" d="M54.6,199.9c-1,4.8-3.1,10.3-6.9,13.5,5.8-.9,11.9-1.8,16.6-5.3,4.7-3.5,7.6-10.3,4.6-15.4"/>
      </g>
      <g id="stamp">
        <g>
          <path class="cls-6" d="M503.1,32.5l-6.5-15.2-29.6,19.1h0s-9.2,15.8-9.2,15.8l15.6-.6h0s29.6-19.1,29.6-19.1ZM496.1,19.1l5.5,12.9-27.4,17.7-5.5-12.9,27.4-17.7ZM460,50.8l6.8-11.8,4.8,11.3-11.6.4Z"/>
          <polygon class="cls-6" points="461.3 46.4 458.2 51.9 464.5 51.9 461.3 46.4"/>
        </g>
      </g>
      <path class="cls-4" d="M459.2,51.7c-11.4,4.8-24.6,4.7-36-.1-1.3-.6-2.7-1.3-3.1-2.7-.3-1.4,1.5-2.9,2.5-1.9-1,3.2-3.9,5.5-7,6.7-3.1,1.2-6.5,1.4-9.8,1.5-10.5.4-21.2-.1-31.6,1.1s-21.1,4.2-29.3,10.9c-1.3,1-2.5,2.2-3.1,3.7s-.4,3.5.9,4.5c1.9,1.5,5.1,0,5.6-2.4s-1.1-4.8-3.2-6-4.7-1.4-7.1-1.4c-13.6-.2-27.2,3.5-38.9,10.5-2.9,1.7-8.8,9.4-8.8,12.8"/>
    </g>
  </g>
</svg>