<?xml version="1.0" encoding="utf-8"?>
<!-- Generator: Adobe Illustrator 28.3.0, SVG Export Plug-In . SVG Version: 6.00 Build 0)  -->
<svg version="1.1" id="Layer_1" xmlns="http://www.w3.org/2000/svg" xmlns:xlink="http://www.w3.org/1999/xlink" x="0px" y="0px"
	 viewBox="0 0 695.66 235.43" style="enable-background:new 0 0 695.66 235.43;" xml:space="preserve">
<style type="text/css">
	.st0{fill:none;stroke:#3B8377;stroke-width:2.7619;stroke-miterlimit:10;}
	.st1{fill:none;stroke:#3B8377;stroke-width:2;stroke-miterlimit:10;}
	.st2{fill:none;stroke:#5FA9A0;stroke-width:2;stroke-miterlimit:10;}
	.st3{fill:none;stroke:#3B8377;stroke-width:1.0827;stroke-miterlimit:10;}
	.st4{fill:none;stroke:#3B8377;stroke-width:0.784;stroke-miterlimit:10;}
	.st5{fill:none;stroke:#5FA9A0;stroke-width:0.784;stroke-miterlimit:10;}
	.st6{font-family:'Didot-Bold';}
	.st7{font-size:65.6046px;}
	.st8{fill:#5FA9A0;}
	.st9{fill:#9BD7D0;}
	.st10{fill:#5FA99F;}
	.st11{fill:none;stroke:#3B8377;stroke-miterlimit:10;}
	.st12{fill:none;stroke:#3B8377;stroke-width:2.1421;stroke-miterlimit:10;}
	.st13{fill:none;stroke:#3B8377;stroke-width:2.279;stroke-miterlimit:10;}
	.st14{fill:#3B8377;}
</style>
<text transform="matrix(1 0 0 1 37.3617 135.6724)" class="st6 st7">Sarah Sioux Studios</text>
<path class="st12" d="M36.89,156.8c0.17,1.76-1.63,3.33-3.39,3.16c-1.75-0.18-3.16-1.84-3.28-3.6s0.88-3.49,2.33-4.49
	c1.45-1,3.29-1.34,5.05-1.22c2.31,0.16,4.6,1.12,6.12,2.86c1.52,1.74,2.18,4.28,1.42,6.46c-1.02,2.94-4.19,4.56-7.21,5.28
	c-6.29,1.49-14.65,1.45-18.55-4.61c-1.98-3.08-2.33-7.13-0.93-10.51c2.88-6.91,10.23-7.13,16.68-7.56
	c10.44-0.69,20.88,0.56,31.3,1.11c36.28,1.89,72.58,3.5,108.89,4.72c36.49,1.23,73,2.09,109.51,2.61
	c36.51,0.51,73.03,0.67,109.54,0.47s73.03-0.76,109.53-1.67c36.5-0.91,73-2.18,109.47-3.81c9.86-0.44,19.71-1.06,29.57-1.4
	c9.51-0.33,18.71-0.03,28.15-1.97c4.06-0.84,8.67-2.44,10.02-6.36c0.89-2.58,0.03-5.51-1.62-7.69c-2.79-3.7-7.84-5.52-12.35-4.46
	c-1.65,0.39-3.27,1.17-4.31,2.51c-1.04,1.34-1.38,3.3-0.53,4.76c0.85,1.46,3.02,2.09,4.37,1.06"/>
<path class="st1" d="M647.39,30.48c-2.75-0.77-5.76,0.85-7.35,3.23c-1.59,2.37-2.04,5.33-2.15,8.19c-0.32,8.17,1.7,16.34,0.9,24.47
	s-5.74,16.87-13.83,18.04c-2.19,0.32-4.56,0-6.36-1.29c-1.8-1.29-2.89-3.68-2.27-5.81c0.83-2.88,4.13-4.17,7.04-4.92
	c15.92-4.08,33.19-4.2,47.52-12.24c4.59-2.58,9.11-6.57,9.45-11.83c0.4-6.24-5.65-11.45-11.87-12.15
	c-6.92-0.79-17.53,2.74-21.54,8.51C654.65,48.62,654.16,32.37,647.39,30.48z"/>
<g>
	<path class="st1" d="M43.7,49.43c0.48-3.37,0.96-6.73,1.44-10.1"/>
	<path class="st1" d="M42.98,56.19c0.24,3.37,0.48,6.73,0.72,10.1"/>
	<path class="st1" d="M46.68,53.46c4.09,0.24,8.18,0.48,12.26,0.72"/>
	<path class="st1" d="M27.38,51.83c4.09,0.24,8.18,0.48,12.26,0.72"/>
	<path class="st1" d="M49.93,48.96c3.01-2.09,6.01-4.19,9.02-6.28"/>
	<path class="st1" d="M38.67,57.64c-1.81,2.81-3.62,5.62-5.43,8.43"/>
	<path class="st1" d="M48.43,58.24c2.4,2.4,4.81,4.81,7.21,7.21"/>
	<path class="st1" d="M31.45,40.77c2.4,2.4,4.81,4.81,7.21,7.21"/>
</g>
<g>
	<path class="st11" d="M648.79,191.66c0.48-3.37,0.96-6.73,1.44-10.1"/>
	<path class="st11" d="M648.07,198.43c0.24,3.37,0.48,6.73,0.72,10.1"/>
	<path class="st11" d="M651.77,195.69c4.09,0.24,8.18,0.48,12.26,0.72"/>
	<path class="st11" d="M632.48,194.06c4.09,0.24,8.18,0.48,12.26,0.72"/>
	<path class="st11" d="M655.02,191.19c3.01-2.09,6.01-4.19,9.02-6.28"/>
	<path class="st11" d="M643.76,199.87c-1.81,2.81-3.62,5.62-5.43,8.43"/>
	<path class="st11" d="M653.52,200.47c2.4,2.4,4.81,4.81,7.21,7.21"/>
	<path class="st11" d="M636.55,183c2.4,2.4,4.81,4.81,7.21,7.21"/>
</g>
<path class="st13" d="M307.79,167.87c11.08-12.97,25.75-22.63,43.62-28.46"/>
<path class="st13" d="M333.31,169.67c9.8-14.17,26.25-23.53,43.44-24.73"/>
<g>
	<path class="st11" d="M54.23,200.05c24.2-13.2,51.46-20.72,79-21.8"/>
	<path class="st11" d="M54.23,200.05c11.52-6.3,23.85-11.31,36.26-14.89"/>
	<path class="st11" d="M68.91,192.65c-5.83-2.82-13.49-3.14-19.73-1.39c-6.24,1.75-11.95,4.96-17.59,8.14
		c7.83-0.47,15.71-0.3,23.51,0.5"/>
	<path class="st11" d="M120.3,179.23c-4.25-0.76-7.52-2.59-10.48-5.73c12.66-1.89,25.82-0.28,37.64,4.6
		c-9.49,3.34-18.98,6.68-28.47,10.02c-0.19-2.19-0.37-4.38-0.56-6.58"/>
	<path class="st11" d="M54.59,199.85c-0.96,4.84-3.11,10.34-6.9,13.51c5.81-0.86,11.88-1.82,16.62-5.3
		c4.73-3.48,7.55-10.33,4.6-15.41"/>
</g>
<g id="stamp_00000180333007907874173920000018229629564471534217_">
	<g>
		<g>
			<path class="st14" d="M503.13,32.47l-6.45-15.2l-29.58,19.1l-0.01-0.01l-9.16,15.83l15.62-0.6l-0.01-0.02L503.13,32.47z
				 M496.09,19.14l5.47,12.9l-27.43,17.67l-5.47-12.9L496.09,19.14z M460.04,50.79L466.87,39l4.81,11.35L460.04,50.79z"/>
			<polygon class="st14" points="461.34,46.37 458.18,51.89 464.54,51.87 			"/>
		</g>
	</g>
</g>
<path class="st11" d="M459.23,51.68c-11.36,4.75-24.64,4.71-35.97-0.12c-1.31-0.56-2.73-1.35-3.06-2.73
	c-0.32-1.38,1.54-2.93,2.5-1.88c-1.04,3.17-3.88,5.5-7,6.69c-3.11,1.19-6.51,1.41-9.84,1.53c-10.55,0.37-21.16-0.13-31.65,1.07
	c-10.49,1.2-21.08,4.25-29.29,10.9c-1.28,1.04-2.54,2.21-3.15,3.74s-0.42,3.5,0.86,4.54c1.89,1.54,5.09-0.06,5.58-2.44
	s-1.12-4.82-3.25-6c-2.13-1.18-4.66-1.37-7.09-1.41c-13.6-0.22-27.24,3.47-38.87,10.52c-2.88,1.74-8.84,9.4-8.84,12.77"/>
</svg>
