<?xml version="1.0" encoding="UTF-8"?>
<svg id="Layer_1" data-name="Layer 1" xmlns="http://www.w3.org/2000/svg" version="1.1" viewBox="0 0 216 87.54">
  <defs>
    <style>
      .cls-1 {
        stroke: #5fa9a0;
      }

      .cls-1, .cls-2 {
        stroke-width: .8px;
      }

      .cls-1, .cls-2, .cls-3 {
        fill: none;
        stroke-miterlimit: 10;
      }

      .cls-4 {
        fill: #000;
        font-family: Didot-Italic, Didot;
        font-size: 47.73px;
        font-style: italic;
      }

      .cls-2, .cls-3 {
        stroke: #3b8377;
      }

      .cls-3 {
        stroke-width: 1.11px;
      }
    </style>
  </defs>
  <path class="cls-3" d="M27.5,68.52c.18-1.06,2.23-.56,1.91.46.47,2.45-2.31,4.72-4.74,4.16s-3.97-3.28-3.69-5.76,2.04-4.61,4.18-5.88,4.64-1.81,7.11-2.18c13.08-1.96,26.3.79,39.45,2.19,15.92,1.69,57.7,2.37,86.21,2.24,9.77-.04,48.49-2.46,51.65-4.96s5.02-7.11,3.19-10.71c-1.65-3.25-5.72-4.62-9.35-4.33-2.65.21-5.42,1.3-6.78,3.59s-.56,5.84,1.96,6.66,5.34-2.72,3.54-4.67"/>
  <path class="cls-2" d="M190.56,18.69c4.47-2,9.71-2.19,14.31-.52"/>
  <path class="cls-1" d="M189.33,14.66c4.09-4.81,10.45-7.6,16.76-7.35"/>
  <path class="cls-2" d="M183.28,14.96c.58-3.42,2.92-6.49,6.05-7.96"/>
  <path class="cls-2" d="M35.85,23.02c-3.89-4.25-14.63-8.24-25.36-3.4"/>
  <path class="cls-1" d="M20.43,50.27c2.93-2.65,1-5.31-.24-6.16-1.04-.71-3.12-1.33-4.6-1.36s-3.43,2.87-2.65,3.86c.67.84,2.44.59,3.21-.26s.73-2.01.37-2.98c-.69-1.85-2.5-3.22-4.67-4-2.81-1.01-8.06.27-8.42,5.35"/>
  <path class="cls-1" d="M40.26,23.15c-.81-4.85-4.83-9-9.65-9.95"/>
  <path class="cls-1" d="M34.02,27.4c-2.96-2.64-7.67-3.07-11.07-1.03"/>
  <path class="cls-1" d="M200.9,63.77c3.5-.22,6.59,1.35,8.22,4.67"/>
  <path class="cls-1" d="M201.81,67.66c1.92.75,3.26,2.78,3.2,4.84"/>
  <path class="cls-1" d="M196.91,67.24c1.21,1.5,1.52,3.53.81,5.26"/>
  <text class="cls-4" transform="translate(39.54 52.2)"><tspan x="0" y="0">Projects</tspan></text>
</svg>