<?xml version="1.0" encoding="UTF-8"?>
<svg xmlns="http://www.w3.org/2000/svg" version="1.1" viewBox="0 0 216 87.5">
  <defs>
    <style>
      .cls-1 {
        stroke-width: 1.2px;
      }

      .cls-1, .cls-2, .cls-3 {
        fill: none;
        stroke-miterlimit: 10;
      }

      .cls-1, .cls-3 {
        stroke: #3b8377;
      }

      .cls-4, .cls-5 {
        isolation: isolate;
      }

      .cls-2 {
        stroke: #5fa9a0;
      }

      .cls-2, .cls-3 {
        stroke-width: .9px;
      }

      .cls-5 {
        font-family: Didot-HTF-B16-Bold-Ital, Didot;
        font-size: 45.7px;
        font-style: italic;
        font-weight: 700;
      }
    </style>
  </defs>
  <!-- Generator: Adobe Illustrator 28.6.0, SVG Export Plug-In . SVG Version: 1.2.0 Build 709)  -->
  <g>
    <g id="Layer_1">
      <path class="cls-1" d="M22,73.8c.2-1.1,2.4-.6,2,.5.5,2.6-2.5,5-5,4.4s-4.2-3.5-3.9-6.1,2.2-4.9,4.4-6.2,4.9-1.9,7.5-2.3c13.9-2.1,27.9.4,41.8,2.3,29.9,4.2,60.1,6.3,90.3,6.1,10.4,0,20.7-.3,31-1.9,4.2-.6,8.6-1.5,12-4.2s5.3-7.5,3.4-11.3c-1.8-3.4-6.1-4.9-9.9-4.6-2.8.2-5.7,1.4-7.2,3.8s-.6,6.2,2.1,7,5.7-2.9,3.8-5"/>
      <path class="cls-3" d="M190.3,30.8c4.7-2.1,10.3-2.3,15.2-.5"/>
      <path class="cls-2" d="M189,26.5c4.3-5.1,11.1-8.1,17.8-7.8"/>
      <path class="cls-3" d="M182.6,26.8c.6-3.6,3.1-6.9,6.4-8.4"/>
      <path class="cls-3" d="M43.8,19.1c-4.1-4.5-15.5-8.7-26.9-3.6"/>
      <path class="cls-2" d="M25.1,54.5c3.1-2.8,1.1-5.6-.2-6.5-1.1-.8-3.3-1.4-4.9-1.4s-3.6,3-2.8,4.1c.7.9,2.6.6,3.4-.3s.8-2.1.4-3.2c-.7-2-2.6-3.4-4.9-4.2-3-1.1-8.5.3-8.9,5.7"/>
      <path class="cls-2" d="M48.5,19.3c-.8-5.1-5.1-9.5-10.2-10.5"/>
      <path class="cls-2" d="M41.9,23.8c-3.1-2.8-8.1-3.2-11.7-1.1"/>
      <path class="cls-2" d="M205.6,68.8c3.7-.2,7,1.4,8.7,4.9"/>
      <path class="cls-2" d="M206.6,72.9c2,.8,3.5,2.9,3.4,5.1"/>
      <path class="cls-2" d="M201.4,72.5c1.3,1.6,1.6,3.7.9,5.6"/>
      <g class="cls-4">
        <text class="cls-5" transform="translate(38.3 58.1)"><tspan x="0" y="0">Resume</tspan></text>
      </g>
    </g>
  </g>
</svg>