<?xml version="1.0" encoding="UTF-8"?>
<svg id="Layer_1" data-name="Layer 1" xmlns="http://www.w3.org/2000/svg" version="1.1" viewBox="0 0 216 87.54">
  <defs>
    <style>
      .cls-1 {
        stroke: #5fa9a0;
      }

      .cls-1, .cls-2, .cls-3 {
        fill: none;
        stroke-miterlimit: 10;
      }

      .cls-1, .cls-3 {
        stroke-width: .85px;
      }

      .cls-2 {
        stroke-width: 1.18px;
      }

      .cls-2, .cls-3 {
        stroke: #3b8377;
      }

      .cls-4 {
        fill: #000;
        font-family: Didot-Italic, Didot;
        font-size: 45.7px;
        font-style: italic;
      }
    </style>
  </defs>
  <path class="cls-2" d="M21.96,73.82c.19-1.12,2.36-.6,2.02.49.5,2.59-2.45,5-5.02,4.41s-4.2-3.47-3.91-6.1,2.16-4.88,4.43-6.23,4.91-1.92,7.53-2.31c13.85-2.07,27.92.36,41.79,2.32,29.9,4.23,60.11,6.28,90.3,6.14,10.35-.05,20.73-.35,30.98-1.86,4.23-.62,8.61-1.53,11.96-4.17s5.31-7.53,3.37-11.34c-1.75-3.44-6.06-4.9-9.91-4.59-2.8.23-5.74,1.38-7.18,3.8s-.6,6.18,2.08,7.05,5.66-2.88,3.75-4.95"/>
  <path class="cls-3" d="M190.3,30.78c4.73-2.12,10.29-2.32,15.16-.55"/>
  <path class="cls-1" d="M189,26.51c4.33-5.1,11.07-8.06,17.75-7.78"/>
  <path class="cls-3" d="M182.59,26.83c.62-3.62,3.09-6.87,6.41-8.44"/>
  <path class="cls-3" d="M43.82,19.13c-4.12-4.5-15.49-8.73-26.87-3.6"/>
  <path class="cls-1" d="M25.14,54.49c3.11-2.8,1.06-5.62-.25-6.52-1.1-.75-3.3-1.4-4.87-1.44s-3.64,3.04-2.8,4.09c.71.89,2.59.63,3.4-.27s.77-2.13.39-3.15c-.73-1.96-2.65-3.41-4.95-4.24-2.97-1.07-8.54.28-8.91,5.67"/>
  <path class="cls-1" d="M48.49,19.27c-.85-5.14-5.12-9.53-10.23-10.54"/>
  <path class="cls-1" d="M41.89,23.77c-3.14-2.79-8.13-3.25-11.72-1.09"/>
  <path class="cls-1" d="M205.63,68.79c3.71-.23,6.98,1.43,8.71,4.94"/>
  <path class="cls-1" d="M206.6,72.9c2.04.79,3.46,2.95,3.39,5.13"/>
  <path class="cls-1" d="M201.4,72.47c1.28,1.59,1.61,3.74.86,5.57"/>
  <text class="cls-4" transform="translate(43.49 54.62)"><tspan x="0" y="0">Resume</tspan></text>
</svg>